<svg xmlns="http://www.w3.org/2000/svg" viewBox="0 0 32 32">
  <defs>
    <linearGradient id="g" x1="0%" y1="0%" x2="100%" y2="100%">
      <stop offset="0%" stop-color="#e8a838"/>
      <stop offset="100%" stop-color="#b8842a"/>
    </linearGradient>
  </defs>
  <rect width="32" height="32" rx="6" fill="#1a1a1e"/>
  <!-- Warp threads (vertical) -->
  <line x1="10" y1="5" x2="10" y2="27" stroke="url(#g)" stroke-width="1.5" stroke-linecap="round" opacity="0.5"/>
  <line x1="16" y1="5" x2="16" y2="27" stroke="url(#g)" stroke-width="1.5" stroke-linecap="round" opacity="0.5"/>
  <line x1="22" y1="5" x2="22" y2="27" stroke="url(#g)" stroke-width="1.5" stroke-linecap="round" opacity="0.5"/>
  <!-- Weft threads (horizontal, weaving) -->
  <path d="M6 10 Q10 7, 10 10 Q10 13, 16 10 Q22 7, 22 10 Q22 13, 26 10" fill="none" stroke="#e8a838" stroke-width="1.8" stroke-linecap="round"/>
  <path d="M6 16 Q10 19, 10 16 Q10 13, 16 16 Q22 19, 22 16 Q22 13, 26 16" fill="none" stroke="#e8a838" stroke-width="1.8" stroke-linecap="round"/>
  <path d="M6 22 Q10 19, 10 22 Q10 25, 16 22 Q22 19, 22 22 Q22 25, 26 22" fill="none" stroke="#e8a838" stroke-width="1.8" stroke-linecap="round"/>
</svg>
